
        <svg xmlns="http://www.w3.org/2000/svg" xmlns:xlink="http://www.w3.org/1999/xlink" version="1.1" width="3193.548387096774" height="3047.8176566630236" viewBox="0 0 3193.548387096774 3047.8176566630236">
			
			<g transform="scale(9.677419354838708) translate(10, 10)">
				<defs id="SvgjsDefs1280"><linearGradient id="SvgjsLinearGradient1287"><stop id="SvgjsStop1288" stop-color="#147d6c" offset="0"/><stop id="SvgjsStop1289" stop-color="#1effff" offset="1"/></linearGradient></defs><g id="SvgjsG1281" featureKey="rootContainer" transform="matrix(1.5696512460708618,0,0,1.5696512460708618,0,0)" fill="#000"><path xmlns="http://www.w3.org/2000/svg" d="M186.037 47.606c-2.199-3.918-4.573-7.708-7.278-11.212-2.673-3.521-5.532-6.862-8.641-9.896-1.501-1.568-3.157-2.966-4.737-4.419l-2.486-2.04c-.416-.335-.822-.681-1.244-1.006l-1.286-.948c-3.376-2.588-6.978-4.783-10.585-6.828-1.85-.953-3.631-1.955-5.557-2.789-.942-.424-1.896-.887-2.819-1.272l-2.741-1.088-1.436-.563-1.428-.485-2.84-.963-2.865-.816c-.952-.27-1.896-.548-2.859-.748l-2.861-.651c-.947-.225-1.914-.351-2.863-.53-.955-.153-1.896-.36-2.85-.465l-2.844-.348c-.941-.134-1.888-.19-2.829-.256l-2.809-.197-2.793-.058c-.926-.021-1.848-.047-2.766-.002a92.396 92.396 0 0 0-20.951 2.813C70.563 6.3 59.408 12.063 50.684 18.606a94.794 94.794 0 0 0-11.452 10.073c-.852.814-1.59 1.705-2.365 2.525l-1.131 1.235c-.364.415-.705.842-1.052 1.256l-2.014 2.438-1.806 2.405c-4.652 6.288-7.49 11.763-9.253 15.556-.942 1.875-1.481 3.375-1.92 4.36l-.631 1.504-.003.007-.574 1.533c-.356 1.019-.997 2.493-1.593 4.497-1.313 3.961-3.002 9.899-3.925 17.664l-.334 2.989-.205 3.155c-.03.539-.075 1.083-.095 1.635l-.023 1.675c.002 1.128-.071 2.283-.009 3.46.065 4.71.49 9.809 1.436 15.183 1.26 7.265 3.635 15.029 7.239 22.851.779.461 1.548.94 2.31 1.432-4.283-8.301-7.051-16.679-8.546-24.475-2.073-10.61-1.93-20.139-1.051-27.822.868-7.709 2.508-13.618 3.789-17.561.58-1.996 1.208-3.463 1.556-4.478l.56-1.525.639-1.496c.443-.978.997-2.489 1.94-4.333 1.766-3.739 4.625-9.172 9.278-15.377 4.628-6.196 11.056-13.232 19.838-19.535A91.401 91.401 0 0 1 84.063 4.544a90.29 90.29 0 0 1 20.54-2.216c.895-.022 1.792.028 2.692.072l2.713.125 2.725.263c.912.087 1.829.165 2.74.32l2.75.409c.923.124 1.831.351 2.751.522.916.198 1.847.342 2.759.585l2.753.702c.926.215 1.834.51 2.747.795l2.748.859 2.72 1.002 1.366.503c.433.17.895.378 1.341.566l2.71 1.16c.897.402 1.764.855 2.652 1.283 1.786.825 3.494 1.846 5.243 2.803 3.416 2.057 6.815 4.246 9.982 6.808l1.207.938c.396.322.776.663 1.166.994l2.327 2.01c1.474 1.431 3.021 2.8 4.415 4.336 2.893 2.969 5.534 6.223 7.991 9.637 2.489 3.396 4.649 7.057 6.641 10.824a90.788 90.788 0 0 1 8.513 24.324 91.449 91.449 0 0 1 1.326 26.142l-.353 3.283c-.149 1.09-.337 2.177-.503 3.266-.091.543-.161 1.091-.268 1.631l-.337 1.619c-.239 1.076-.419 2.167-.706 3.232-1.022 4.289-2.432 8.505-3.994 12.605-1.699 4.128-3.542 8.104-5.743 11.943-.521.972-1.138 1.89-1.702 2.837l-.864 1.41c-.292.467-.617.913-.923 1.371-.625.907-1.233 1.826-1.872 2.723l-1.994 2.632a91.506 91.506 0 0 1-18.886 18.123 90.78 90.78 0 0 1-22.873 11.874c-4.033 1.377-8.116 2.561-12.256 3.328-4.129.801-8.283 1.359-12.424 1.538-2.068.163-4.133.099-6.187.13l-3.072-.133c-.51-.026-1.021-.038-1.53-.075l-1.522-.145c-4.062-.306-8.038-1.042-11.935-1.887-1.93-.502-3.871-.929-5.744-1.555-.94-.298-1.888-.564-2.814-.886l-2.755-1.009c-.452-.169-.927-.332-1.359-.504l-1.346-.573-2.679-1.141-2.584-1.256c-.858-.417-1.718-.824-2.541-1.303l-2.485-1.376c-.831-.448-1.608-.982-2.41-1.466-.788-.507-1.605-.963-2.362-1.505l-2.282-1.588c-.769-.512-1.49-1.083-2.214-1.645l-2.165-1.677-2.062-1.769c-.686-.585-1.373-1.164-2.01-1.793a88.332 88.332 0 0 1-2.869-2.797c-1.327-1.58-2.581-3.179-3.803-4.573-2.252-2.567-4.593-5.215-6.564-8.082-2.054-1.562-4.246-2.861-6.643-3.752-9.023-3.367-19.606-.866-21.632 9.474-2.039 10.344 6.262 19.563 15.144 15.991 8.889-3.579 2.976-12.596 2.976-12.596-8.685 10.673-19.863-.046-13.219-8.189 6.649-8.149 18.864.11 24.08 5.962 5.217 5.859 8.36 16.912 22.738 25.257 6.962 4.038 13.209 4.608 17.806 4.125l2.185.863c.952.358 1.927.661 2.895.995 1.929.698 3.931 1.195 5.926 1.768 4.028.983 8.154 1.854 12.384 2.283l1.585.19c.53.053 1.062.08 1.596.12l3.207.219c2.146.025 4.309.142 6.477.029 4.342-.079 8.712-.551 13.07-1.283 4.37-.697 8.694-1.829 12.98-3.175 8.554-2.764 16.778-6.906 24.35-12.13l2.816-2.002 2.726-2.137c.924-.697 1.782-1.473 2.661-2.227.871-.764 1.77-1.499 2.594-2.317l2.502-2.426 2.385-2.547c.811-.836 1.551-1.737 2.305-2.625.744-.897 1.533-1.76 2.224-2.701l2.131-2.78c.684-.947 1.336-1.917 2.004-2.877.329-.483.674-.956.988-1.45l.927-1.49c.605-1.001 1.262-1.973 1.823-3l1.704-3.072c.572-1.017 1.074-2.138 1.612-3.204l.792-1.62c.266-.542.453-1.029.683-1.546l1.322-3.06.357-.941.301-.826.599-1.652c.419-1.094.762-2.215 1.101-3.336.332-1.124.718-2.23 1-3.368l.865-3.405c.296-1.133.484-2.291.729-3.435l.347-1.72c.11-.574.183-1.155.275-1.733.171-1.157.361-2.31.512-3.468l.355-3.485c.143-1.159.159-2.328.233-3.491.059-1.164.139-2.327.122-3.492l.009-3.49-.154-3.482c-.023-1.161-.18-2.313-.29-3.466-.123-1.152-.215-2.306-.411-3.447l-.52-3.425-.679-3.389c-1.93-8.994-5.097-17.64-9.407-25.53z"/></g><g id="SvgjsG1282" featureKey="symbolFeature-0" transform="matrix(0.9996962547302246,0,0,0.9996962547302246,109.23070247754589,61.42205059226798)" fill="#000"><g xmlns="http://www.w3.org/2000/svg"><g><path d="M89.763,84.877c-1.875-4.225-4.154-9.297-7.848-12.32c5.201-4.148,8.371-10.492,8.371-17.334    c0-12.223-9.945-22.166-22.17-22.166c-7.129,0-13.625,3.35-17.797,9.012c-3.9-3.412-8.988-5.496-14.564-5.496    c-12.223,0-22.168,9.943-22.168,22.168c0,4.463,1.338,8.674,3.668,12.207l-0.268,0.205c-2.086,1.582-6.969,5.287-5.512,9.844    c0.404,1.268,1.428,2.105,2.883,2.363c0.309,0.053,0.641,0.08,0.99,0.08c0.146,0,0.314-0.029,0.469-0.039    c-1.402,2.49-2.117,4.91-2.164,5.072c-0.256,0.887,0.254,1.811,1.139,2.066c0.156,0.047,0.313,0.066,0.467,0.066    c0.725,0,1.391-0.475,1.604-1.205c0.438-1.508,2.078-5.764,4.404-7.551c1.951-0.926,3.689-2.131,4.564-3.262    c0.008-0.01,0.008-0.021,0.016-0.031c1.363,0.682,2.801,1.246,4.32,1.641c0.141,0.037,0.283,0.053,0.422,0.053    c0.742,0,1.42-0.498,1.615-1.248c0.232-0.895-0.303-1.807-1.197-2.037c-8.289-2.156-14.08-9.65-14.08-18.225    c0-10.381,8.445-18.828,18.828-18.828s18.83,8.447,18.83,18.828c0,7.432-4.391,14.188-11.186,17.209    c-0.844,0.375-1.223,1.363-0.848,2.205c0.375,0.846,1.363,1.223,2.205,0.848c0.648-0.287,1.273-0.615,1.883-0.961    c3.66,2.172,7.164,6.412,9.486,11.58c0.279,0.619,0.889,0.984,1.525,0.984c0.229,0,0.461-0.047,0.684-0.146    c0.842-0.377,1.217-1.365,0.838-2.207c-2.33-5.18-5.791-9.566-9.541-12.242c1.486-1.195,2.809-2.566,3.932-4.084    c2.586,2.256,5.646,3.891,8.969,4.754c0.141,0.037,0.281,0.053,0.42,0.053c0.744,0,1.422-0.498,1.615-1.25    c0.232-0.893-0.303-1.805-1.195-2.035c-2.994-0.777-5.717-2.322-7.994-4.426c1.633-3.115,2.547-6.625,2.547-10.281    c0-5.43-1.971-10.404-5.223-14.262c3.523-5.064,9.184-8.082,15.414-8.082c10.383,0,18.828,8.445,18.828,18.826    c0,7.434-4.389,14.189-11.182,17.209c-0.844,0.375-1.223,1.361-0.848,2.205c0.277,0.623,0.887,0.992,1.527,0.992    c0.227,0,0.457-0.047,0.678-0.145c0.637-0.283,1.246-0.604,1.848-0.941c3.545,2.311,5.867,7.463,7.742,11.689l0.51,1.141    c0.277,0.619,0.887,0.986,1.523,0.986c0.229,0,0.461-0.047,0.684-0.146c0.84-0.377,1.217-1.365,0.84-2.207L89.763,84.877z     M19.298,73.59c1.082,1.201,2.305,2.275,3.635,3.221c-1.252,1.281-4.602,2.992-6.977,3.262c-0.857,0.094-1.244-0.043-1.299-0.092    c-0.738-2.309,2.826-5.012,4.35-6.168L19.298,73.59z"/><path d="M71.144,54.912c-4.055,2.908-7.652,0.355-8.059,0.047c-0.908-0.705-2.213-0.543-2.92,0.359    c-0.713,0.906-0.557,2.217,0.35,2.93c1.285,1.01,3.742,2.193,6.646,2.193c2.004,0,4.223-0.564,6.416-2.137    c0.938-0.672,1.15-1.977,0.479-2.914S72.079,54.24,71.144,54.912z"/><path d="M63.894,47.729c0-1.348-1.1-2.445-2.451-2.445c-1.348,0-2.445,1.097-2.445,2.445c0,1.352,1.098,2.449,2.445,2.449    C62.794,50.178,63.894,49.08,63.894,47.729z"/><path d="M72.72,45.284c-1.35,0-2.447,1.097-2.447,2.445c0,1.352,1.098,2.449,2.447,2.449s2.449-1.098,2.449-2.449    C75.169,46.381,74.069,45.284,72.72,45.284z"/><path d="M10.829,63.129l-3.367-3.105c-0.68-0.625-1.736-0.582-2.361,0.096c-0.625,0.676-0.582,1.734,0.096,2.359l3.367,3.107    c0.322,0.295,0.729,0.441,1.133,0.441c0.449,0,0.898-0.182,1.227-0.537C11.55,64.813,11.507,63.756,10.829,63.129z"/><path d="M8.001,68.43c-1.756-0.41-5.229-0.795-5.375-0.813c-0.91-0.092-1.742,0.561-1.844,1.479    c-0.102,0.916,0.561,1.742,1.477,1.842c0.035,0.004,3.42,0.381,4.984,0.744c0.127,0.031,0.254,0.045,0.381,0.045    c0.758,0,1.445-0.521,1.625-1.293C9.458,69.537,8.899,68.639,8.001,68.43z"/><path d="M6.683,75.006c-0.719,0.32-1.375,0.705-2.012,1.08c-0.635,0.371-1.234,0.723-1.836,0.977    c-0.852,0.355-1.252,1.334-0.896,2.186c0.27,0.639,0.889,1.023,1.541,1.023c0.217,0,0.436-0.041,0.645-0.131    c0.809-0.338,1.535-0.764,2.236-1.176c0.584-0.34,1.133-0.664,1.686-0.91c0.84-0.375,1.219-1.363,0.844-2.205    S7.526,74.627,6.683,75.006z"/><path d="M46.97,58.223c-0.672-0.938-1.977-1.152-2.912-0.48c-4.057,2.912-7.652,0.355-8.059,0.047    c-0.908-0.701-2.211-0.543-2.92,0.359c-0.713,0.906-0.555,2.221,0.352,2.932c1.283,1.01,3.738,2.191,6.645,2.191    c2.004,0,4.223-0.563,6.414-2.137C47.427,60.463,47.642,59.158,46.97,58.223z"/><circle cx="34.359" cy="50.561" r="2.448"/><path d="M48.081,50.561c0-1.35-1.098-2.445-2.443-2.445c-1.352,0-2.451,1.096-2.451,2.445s1.1,2.447,2.451,2.447    C46.983,53.008,48.081,51.91,48.081,50.561z"/><path d="M53.946,0.592c-2.836,0-5.584,1.131-7.539,3.098c-0.27,0.273-0.527,0.559-0.771,0.863    c-2.406-2.992-6.264-4.502-10.127-3.805c-3.266,0.602-5.836,2.396-7.641,5.344c-2.531,4.156-2.73,8.17-0.596,11.926    c1.117,1.977,2.525,3.852,4.436,5.908c3.418,3.629,7.453,7.066,12.795,10.885c0.361,0.221,0.74,0.332,1.131,0.332    c0.658,0,1.096-0.314,1.313-0.473c4.742-3.385,8.469-6.508,11.727-9.828c1.828-1.867,3.902-4.16,5.42-7.016    c0.701-1.332,1.414-2.951,1.369-4.844c-0.104-4.08-1.732-7.451-4.838-10.016C58.776,1.436,56.407,0.592,53.946,0.592z     M62.122,13.064c0.027,1.121-0.457,2.205-0.982,3.201c-1.314,2.473-3.191,4.543-4.852,6.238    c-2.961,3.018-6.346,5.879-10.664,9.004c-4.711-3.42-8.375-6.572-11.477-9.863c-1.721-1.854-2.982-3.529-3.971-5.273    c-1.533-2.699-1.359-5.412,0.543-8.537c1.303-2.131,3.068-3.373,5.389-3.801c0.439-0.08,0.887-0.121,1.324-0.121    c2.721,0,5.129,1.504,6.498,4.129c0.066,0.129,0.135,0.262,0.242,0.457c0.301,0.541,0.85,0.842,1.502,0.857    c0.623-0.016,1.184-0.377,1.457-0.936c0.477-0.973,0.998-1.727,1.645-2.373c1.334-1.344,3.219-2.115,5.17-2.115    c1.684,0,3.297,0.572,4.549,1.609C60.856,7.49,62.044,9.951,62.122,13.064z"/><path d="M54.884,6.67c-0.879-0.299-1.82,0.188-2.109,1.061c-0.289,0.877,0.188,1.82,1.063,2.109c1.043,0.344,1.4,1.266,1.52,1.783    c0.256,1.104-0.07,2.334-0.816,3.063c-0.658,0.645-0.67,1.701-0.023,2.361c0.326,0.334,0.76,0.502,1.193,0.502    c0.422,0,0.842-0.158,1.168-0.477c1.57-1.537,2.25-3.973,1.732-6.205C58.136,8.824,56.778,7.293,54.884,6.67z"/><path d="M51.452,18.17c-0.316,0.318-0.484,0.752-0.484,1.186s0.168,0.869,0.484,1.17c0.316,0.316,0.734,0.5,1.186,0.5    c0.436,0,0.869-0.184,1.17-0.5c0.316-0.301,0.5-0.736,0.5-1.17c0-0.449-0.184-0.885-0.5-1.186    C53.188,17.553,52.069,17.553,51.452,18.17z"/></g></g></g><g id="SvgjsG1283" featureKey="nameFeature-0" transform="matrix(1.8196680545806885,0,0,1.8196680545806885,51.950634395991045,151.5246472616128)" fill="#000"><path d="M12.8 21.92 c3.84 0.12 5.84 2.4 6.28 6.04 c0.12 1.08 0.08 2.24 -0.08 3.48 c-0.64 4.4 -2.84 9.52 -7.92 9.52 c-0.36 0 -0.72 -0.04 -1.04 -0.08 c-2.2 -0.28 -3.76 -1.56 -4.84 -3.44 l-0.08 1.52 c0 0.76 -1.2 0.84 -1.72 0.84 c-0.4 0 -0.8 -0.08 -1.2 -0.2 s-0.56 -0.36 -0.52 -0.64 l1.28 -24.16 c0.12 -0.76 1.16 -0.8 1.76 -0.8 c0.44 0 0.84 0.08 1.24 0.2 c0.36 0.12 0.52 0.32 0.48 0.6 c-0.12 1.72 -0.16 3.36 -0.28 5 c-0.12 1.72 -0.16 3.32 -0.28 5.04 l0.76 -0.72 c1.72 -1.48 3.76 -2.2 6.16 -2.2 z M15.72 28.96 c0 -2.04 -0.48 -5.44 -3.12 -5.44 l-0.44 0 c-1.8 0.28 -3.04 1.16 -3.8 2.68 c-0.76 1.48 -1.2 3.04 -1.32 4.64 c-0.12 1.8 0.08 3.48 0.68 5.04 c0.56 1.6 1.4 2.64 2.56 3.16 c0.4 0.12 0.72 0.2 0.92 0.2 c2.28 0 3.6 -4.16 4.04 -6.08 c0.32 -1.4 0.36 -2.76 0.48 -4.2 z M36.72 22.4 c0.2 1.64 0.28 3.2 0.16 4.64 c-0.2 2.88 -0.44 5.84 -1.68 8.52 c-1.12 2.44 -3.68 4.08 -6.4 4.08 c-1.64 0 -3.12 -0.48 -4.44 -1.48 s-2.16 -2.32 -2.6 -3.92 c-0.4 -1.48 -0.56 -3 -0.44 -4.52 c0.32 -5.12 1.04 -14.2 7.96 -14.2 c2.08 0 3.76 0.64 5.04 1.96 c1.32 1.32 2.12 2.96 2.4 4.92 z M33.32 29.04 l0.08 -3.04 c0.04 -1.08 0 -2.16 -0.04 -3.32 c-0.08 -1.16 -0.44 -2.32 -1.12 -3.44 c-0.64 -1.16 -1.64 -1.72 -3 -1.72 c-0.44 0 -0.96 0.24 -1.48 0.68 c-2.24 3.16 -2.64 6.96 -2.92 10.68 c-0.04 1.04 -0.04 2.08 0 3.16 c0.08 1.96 0.76 3.64 2 4.96 c0.56 0.6 1.2 0.92 1.88 0.92 c0.36 0 0.76 -0.12 1.12 -0.32 c1.32 -0.84 2.24 -2.12 2.68 -3.8 c0.48 -1.68 0.76 -3.28 0.8 -4.76 z M52.400000000000006 14.36 c2.24 0.44 2.96 2.36 3.28 4.4 c0.12 1.08 0.2 2.16 0.16 3.28 s-0.08 2.08 -0.04 2.84 c0.16 5.24 0.24 10.48 0.24 15.72 c0 0.76 -1.24 0.84 -1.76 0.84 s-1.72 -0.16 -1.72 -0.84 c0 -5.76 -0.08 -11.48 -0.24 -17.2 c-0.04 -0.92 -0.08 -1.84 -0.04 -2.8 c0 -1.4 -0.24 -2.72 -0.68 -4 c-0.2 -0.44 -0.48 -0.68 -0.84 -0.72 c-0.44 0 -0.92 0.16 -1.36 0.52 c-2.84 2.08 -4.4 5.36 -5.16 8.72 c-0.36 1.8 -0.56 3.48 -0.52 5.12 c0 3.2 0.12 6.4 0.36 9.6 c0.04 0.28 -0.12 0.52 -0.48 0.64 c-0.4 0.12 -0.8 0.2 -1.2 0.2 c-0.6 0 -1.64 -0.08 -1.76 -0.84 c-0.2 -2.88 -0.32 -5.76 -0.36 -8.64 c-0.04 -0.16 -0.04 -0.48 -0.04 -1 c-0.08 -5.08 0.04 -10.2 0.36 -15.28 c0.12 -0.76 1.16 -0.84 1.76 -0.84 c0.44 0 0.84 0.08 1.24 0.2 c0.36 0.16 0.52 0.36 0.48 0.64 c-0.04 0.68 -0.08 1.2 -0.08 1.56 l-0.12 1.6 c1.72 -2.24 4.28 -3.88 7.16 -3.88 c0.56 0 1 0.04 1.36 0.16 z M71.56 15.079999999999998 c0.12 -0.76 1.12 -0.84 1.72 -0.84 c0.44 0 0.84 0.08 1.24 0.2 c0.36 0.12 0.52 0.36 0.48 0.64 c-0.6 8.36 -0.68 16.72 -0.24 25.08 c0 0.76 -1.2 0.84 -1.72 0.84 c-1.8 0 -1.8 -0.56 -1.8 -2 c-0.04 -0.24 -0.04 -0.64 -0.04 -1.16 c-1.56 1.8 -3.6 2.68 -6.12 2.68 c-3.32 0 -5.92 -1.88 -6.6 -5.2 c-0.24 -0.96 -0.32 -2.08 -0.28 -3.32 c0.08 -2.44 0.76 -4.56 2 -6.44 c1.28 -1.88 3.24 -2.8 5.84 -2.8 c1.92 0 3.6 0.6 5.04 1.8 c0.08 -3.16 0.24 -6.32 0.48 -9.48 z M70.32000000000001 30.439999999999998 c0 -2.4 -0.8 -4.6 -3 -5.72 c-0.48 -0.2 -0.88 -0.32 -1.16 -0.32 c-1.32 0 -2.24 1.08 -2.92 2.16 c-1.44 2.48 -1.92 5.2 -1.44 8.2 c0.28 1.32 0.76 2.84 1.84 3.68 c0.48 0.32 0.96 0.48 1.44 0.48 c0.6 0 1.2 -0.2 1.8 -0.64 c2.36 -1.8 3.44 -4.96 3.44 -7.84 z M90.28 34.04 c0.24 -0.36 0.76 -0.52 1.56 -0.52 c0.52 0 1 0.08 1.44 0.24 s0.52 0.4 0.32 0.68 c-0.92 1.44 -2.04 2.8 -3.4 4.04 c-1.24 1.16 -2.84 1.72 -4.84 1.72 c-2.48 0 -4.32 -0.8 -5.48 -2.44 s-1.76 -3.56 -1.8 -5.76 c-0.04 -1.32 0.04 -2.56 0.28 -3.8 c0.88 -4.52 3.48 -13.64 9.36 -13.64 c2.44 0 4.04 1.08 4.8 3.28 c0.28 0.92 0.36 1.96 0.24 3.04 c-0.76 5.32 -6.04 8.64 -11.12 8.76 c-0.12 1.16 -0.12 2.32 0 3.48 c0.12 1 0.44 2.12 0.96 3.32 s1.4 1.88 2.6 2 c1.28 0 2.32 -0.52 3.08 -1.6 c0.76 -1 1.4 -1.92 2 -2.8 z M84.76 19.8 l-0.6 1.16 c-1.12 2.28 -1.88 4.64 -2.32 7.08 c1.8 -0.2 3.36 -0.92 4.68 -2.16 c1.36 -1.24 2.28 -2.76 2.72 -4.48 c0.28 -1.04 0.32 -2 0.16 -2.84 c-0.04 -0.4 -0.24 -0.88 -0.56 -1.44 c-0.28 -0.6 -0.68 -0.88 -1.16 -0.88 c-0.56 0.04 -1.12 0.52 -1.72 1.44 c-0.56 0.88 -0.96 1.6 -1.2 2.12 z M108.16 34.04 c0.24 -0.36 0.76 -0.52 1.56 -0.52 c0.52 0 1 0.08 1.44 0.24 s0.52 0.4 0.32 0.68 c-0.92 1.44 -2.04 2.8 -3.4 4.04 c-1.24 1.16 -2.84 1.72 -4.84 1.72 c-2.48 0 -4.32 -0.8 -5.48 -2.44 s-1.76 -3.56 -1.8 -5.76 c-0.04 -1.32 0.04 -2.56 0.28 -3.8 c0.88 -4.52 3.48 -13.64 9.36 -13.64 c2.44 0 4.04 1.08 4.8 3.28 c0.28 0.92 0.36 1.96 0.24 3.04 c-0.76 5.32 -6.04 8.64 -11.12 8.76 c-0.12 1.16 -0.12 2.32 0 3.48 c0.12 1 0.44 2.12 0.96 3.32 s1.4 1.88 2.6 2 c1.28 0 2.32 -0.52 3.08 -1.6 c0.76 -1 1.4 -1.92 2 -2.8 z M102.64 19.8 l-0.6 1.16 c-1.12 2.28 -1.88 4.64 -2.32 7.08 c1.8 -0.2 3.36 -0.92 4.68 -2.16 c1.36 -1.24 2.28 -2.76 2.72 -4.48 c0.28 -1.04 0.32 -2 0.16 -2.84 c-0.04 -0.4 -0.24 -0.88 -0.56 -1.44 c-0.28 -0.6 -0.68 -0.88 -1.16 -0.88 c-0.56 0.04 -1.12 0.52 -1.72 1.44 c-0.56 0.88 -0.96 1.6 -1.2 2.12 z"/></g>
			</g>
		</svg>
	